<?xml version="1.0" standalone="no"?>
<!DOCTYPE svg PUBLIC "-//W3C//DTD SVG 20010904//EN"
 "http://www.w3.org/TR/2001/REC-SVG-20010904/DTD/svg10.dtd">
<svg version="1.0" xmlns="http://www.w3.org/2000/svg"
 width="358.000000pt" height="358.000000pt" viewBox="0 0 358.000000 358.000000"
 preserveAspectRatio="xMidYMid meet">
<metadata>
Created by potrace 1.11, written by Peter Selinger 2001-2013
</metadata>
<g transform="translate(0.000000,358.000000) scale(0.100000,-0.100000)"
fill="#000000" stroke="none">
<path d="M904 3435 c-3 -14 -10 -25 -15 -25 -5 0 -9 -317 -9 -750 0 -493 3
-750 10 -750 6 0 10 -7 10 -16 0 -12 9 -14 38 -12 l37 3 3 733 2 732 150 0
150 0 0 -681 c0 -576 2 -683 14 -695 12 -12 93 -14 504 -14 437 0 491 2 496
16 3 9 6 321 6 695 l0 679 150 0 150 0 0 -729 c0 -802 -5 -741 60 -741 25 0
30 5 35 33 3 17 5 365 3 773 -3 677 -4 742 -20 757 -14 15 -43 17 -222 17
-131 0 -206 -4 -206 -10 0 -5 -7 -10 -15 -10 -13 0 -15 -84 -15 -695 l0 -695
-425 0 -425 0 0 695 c0 688 0 695 -20 695 -11 0 -20 5 -20 10 0 6 -77 10 -210
10 l-210 0 -6 -25z"/>
<path d="M900 1736 c0 -9 -4 -16 -10 -16 -7 0 -10 -270 -10 -790 0 -482 4
-790 9 -790 5 0 13 -9 16 -20 6 -19 15 -20 221 -20 173 0 218 3 230 14 12 12
14 123 14 730 l0 716 425 0 425 0 0 -714 c0 -393 3 -721 6 -730 5 -14 34 -16
221 -16 187 0 217 2 231 17 16 15 17 82 20 792 2 427 0 791 -3 809 -5 27 -10
32 -35 32 -65 0 -60 66 -60 -786 l0 -774 -150 0 -150 0 0 714 c0 393 -3 721
-6 730 -5 14 -59 16 -496 16 -411 0 -492 -2 -504 -14 -12 -12 -14 -121 -14
-716 0 -595 -2 -704 -14 -716 -11 -11 -46 -14 -150 -14 l-136 0 -2 778 -3 777
-37 3 c-29 2 -38 0 -38 -12z"/>
</g>
</svg>
